<?xml version="1.0" encoding="iso-8859-1"?>
<!-- Uploaded to: SVG Repo, www.svgrepo.com, Generator: SVG Repo Mixer Tools -->
<svg fill="#000000" height="800px" width="800px" version="1.1" id="Layer_1" xmlns="http://www.w3.org/2000/svg" xmlns:xlink="http://www.w3.org/1999/xlink" 
	 viewBox="0 0 512 512" xml:space="preserve">
<g>
	<g>
		<path d="M341.182,344.234c-14.602-14.603-32.296-24.987-51.602-30.558c20.168-11.65,33.778-33.436,33.778-58.353
			c0-37.141-30.217-67.358-67.358-67.358c-37.141,0-67.357,30.217-67.357,67.358c0,24.917,13.61,46.703,33.778,58.353
			c-19.307,5.572-37,15.955-51.602,30.558c-22.754,22.752-35.284,53.003-35.284,85.181c0,12.958,10.541,23.499,23.499,23.499
			h193.932c12.958,0,23.499-10.541,23.499-23.499C376.466,397.237,363.935,366.986,341.182,344.234z M221.656,255.324
			c0-18.938,15.406-34.345,34.344-34.345s34.345,15.407,34.345,34.345c0,18.938-15.407,34.345-34.345,34.345
			S221.656,274.261,221.656,255.324z M169.056,419.902c2.124-19.763,10.852-38.07,25.106-52.324
			c16.518-16.518,38.478-25.614,61.838-25.614s45.321,9.097,61.837,25.614c14.254,14.254,22.983,32.561,25.105,52.324H169.056z"/>
	</g>
</g>
<g>
	<g>
		<path d="M413.153,40.955H303.421V16.507C303.421,7.391,296.031,0,286.915,0h-61.829c-9.116,0-16.507,7.391-16.507,16.507v24.449
			H98.847c-9.116,0-16.507,7.391-16.507,16.507v438.031c0,9.116,7.391,16.507,16.507,16.507h314.306
			c9.116,0,16.507-7.391,16.507-16.507V57.462C429.66,48.346,422.27,40.955,413.153,40.955z M241.592,33.013h28.817
			c0,7.511,0,62.655,0,70.553h-28.817C241.592,95.673,241.592,40.522,241.592,33.013z M396.648,478.987h-0.001H115.353V73.968
			h93.225v29.598h-32.729c-9.116,0-16.507,7.391-16.507,16.507s7.391,16.507,16.507,16.507c7.812,0,160.303,0,160.303,0
			c9.116,0,16.507-7.391,16.507-16.507s-7.391-16.507-16.507-16.507h-32.729V73.968h93.225V478.987z"/>
	</g>
</g>
</svg>